<svg width="21" height="22" viewBox="0 0 21 22" fill="none" xmlns="http://www.w3.org/2000/svg">
<path d="M11.5417 19.5995C13.6431 19.3214 15.5637 18.2216 16.9134 16.5236C18.263 14.8257 18.9404 12.657 18.8077 10.4583C18.6751 8.25957 17.7424 6.1959 16.1993 4.6867C14.6561 3.1775 12.6183 2.33602 10.5 2.33329C8.37917 2.33165 6.33749 3.17108 4.79102 4.68053C3.24455 6.18998 2.30967 8.25587 2.17686 10.4573C2.04405 12.6586 2.72331 14.8299 4.07623 16.5285C5.42916 18.2271 7.35393 19.3254 9.45837 19.5995V13.1666H7.37504V11H9.45837V9.20813C9.45837 7.75971 9.60421 7.23429 9.87504 6.70454C10.1418 6.18041 10.5542 5.75196 11.0584 5.47496C11.4563 5.25288 11.9511 5.11963 12.8157 5.06221C13.1584 5.03946 13.6021 5.06763 14.1469 5.14888V7.20721H13.625C12.6698 7.20721 12.275 7.25379 12.0396 7.38488C11.8992 7.46001 11.7848 7.57895 11.7125 7.72504C11.5875 7.96988 11.5417 8.21254 11.5417 9.20704V11H14.1459L13.625 13.1666H11.5417V19.5995ZM10.5 21.8333C4.74692 21.8333 0.083374 16.9832 0.083374 11C0.083374 5.01671 4.74692 0.166626 10.5 0.166626C16.2532 0.166626 20.9167 5.01671 20.9167 11C20.9167 16.9832 16.2532 21.8333 10.5 21.8333Z" fill="black"/>
</svg>
