<svg width="13" height="30" viewBox="0 0 13 30" fill="none" xmlns="http://www.w3.org/2000/svg">
<path d="M2.66673 29.5833C2.27731 29.5842 1.89992 29.4147 1.60006 29.1041C1.4313 28.9292 1.2918 28.7144 1.18954 28.472C1.08729 28.2297 1.0243 27.9644 1.00417 27.6916C0.984044 27.4187 1.00718 27.1436 1.07225 26.8819C1.13733 26.6202 1.24306 26.3771 1.3834 26.1666L8.85006 15L1.65007 3.81246C1.51162 3.59936 1.40824 3.35416 1.34585 3.09095C1.28346 2.82774 1.26331 2.55172 1.28654 2.27874C1.30977 2.00577 1.37593 1.74122 1.48122 1.50031C1.58651 1.2594 1.72885 1.04688 1.90006 0.874957C2.07251 0.685298 2.27445 0.542241 2.49322 0.454764C2.71199 0.367286 2.94287 0.337279 3.17136 0.366622C3.39984 0.395966 3.62101 0.484028 3.82098 0.625282C4.02095 0.766535 4.19541 0.957931 4.3334 1.18746L12.3834 13.6875C12.6285 14.0602 12.7625 14.5278 12.7625 15.0104C12.7625 15.4929 12.6285 15.9605 12.3834 16.3333L4.05006 28.8333C3.88287 29.0854 3.67048 29.2847 3.43013 29.415C3.18978 29.5453 2.92824 29.603 2.66673 29.5833Z" fill="#5F5C5C"/>
</svg>
