<svg width="13" height="30" viewBox="0 0 13 30" fill="none" xmlns="http://www.w3.org/2000/svg">
<path d="M10.3333 0.416706C10.7227 0.415754 11.1001 0.585287 11.4 0.895872C11.5688 1.07077 11.7083 1.28556 11.8105 1.52795C11.9128 1.77034 11.9758 2.03556 11.9959 2.30843C12.016 2.5813 11.9929 2.85645 11.9278 3.11812C11.8627 3.3798 11.757 3.62285 11.6167 3.83337L4.15 15L11.35 26.1875C11.4884 26.4006 11.5918 26.6458 11.6542 26.909C11.7166 27.1723 11.7368 27.4483 11.7135 27.7213C11.6903 27.9942 11.6241 28.2588 11.5188 28.4997C11.4135 28.7406 11.2712 28.9531 11.1 29.125C10.9276 29.3147 10.7256 29.4578 10.5068 29.5452C10.2881 29.6327 10.0572 29.6627 9.82871 29.6334C9.60022 29.604 9.37905 29.516 9.17908 29.3747C8.97911 29.2335 8.80465 29.0421 8.66666 28.8125L0.616663 16.3125C0.371527 15.9398 0.237517 15.4722 0.237517 14.9896C0.237517 14.5071 0.371527 14.0395 0.616663 13.6667L8.95 1.16671C9.11719 0.914589 9.32958 0.715288 9.56993 0.584978C9.81028 0.454668 10.0718 0.397018 10.3333 0.416706Z" fill="#5F5C5C"/>
</svg>
