<svg width="13" height="12" viewBox="0 0 13 12" fill="none" xmlns="http://www.w3.org/2000/svg">
<path d="M5.66665 10.25C6.84996 10.2498 7.99918 9.87839 8.93131 9.195L11.862 11.9425L12.8046 11.0588L9.87398 8.31125C10.6033 7.43729 10.9997 6.35965 11 5.25C11 2.49313 8.60731 0.25 5.66665 0.25C2.72598 0.25 0.333313 2.49313 0.333313 5.25C0.333313 8.00688 2.72598 10.25 5.66665 10.25ZM5.66665 1.5C7.87265 1.5 9.66665 3.18187 9.66665 5.25C9.66665 7.31812 7.87265 9 5.66665 9C3.46065 9 1.66665 7.31812 1.66665 5.25C1.66665 3.18187 3.46065 1.5 5.66665 1.5Z" fill="#8C8A8A"/>
</svg>
