<svg width="23" height="23" viewBox="0 0 23 23" fill="none" xmlns="http://www.w3.org/2000/svg">
<path d="M11.991 0.999956C10.5577 0.947743 9.12874 1.18654 7.79033 1.70194C6.45193 2.21734 5.23186 2.99863 4.2038 3.99866C3.17574 4.99868 2.36101 6.19668 1.80881 7.52033C1.25661 8.84397 0.978399 10.2658 0.99097 11.7C0.972043 13.1779 1.26651 14.643 1.85497 15.9988C2.44343 17.3547 3.31252 18.5704 4.40497 19.566L4.45697 21.256C4.47152 21.7234 4.66743 22.1668 5.00322 22.4924C5.339 22.8179 5.7883 22.9999 6.25597 23C6.50584 22.9997 6.75297 22.9479 6.98197 22.848L8.90297 22C9.91033 22.268 10.9486 22.4025 11.991 22.4C13.4243 22.4522 14.8533 22.2134 16.1918 21.698C17.5302 21.1826 18.7503 20.4013 19.7785 19.4013C20.8066 18.4013 21.6214 17.2033 22.1738 15.8797C22.7261 14.556 23.0044 13.1342 22.992 11.7C23.0044 10.2658 22.7261 8.84408 22.1738 7.5205C21.6216 6.19692 20.8069 4.99897 19.7788 3.99898C18.7508 2.99898 17.5308 2.21768 16.1924 1.70223C14.8541 1.18679 13.4252 0.947886 11.992 0.999956H11.991ZM11.991 20.4C11.1009 20.4027 10.2145 20.285 9.35597 20.05C8.95852 19.9429 8.53637 19.9754 8.15997 20.142L6.44597 20.898L6.40097 19.405C6.39116 19.163 6.33292 18.9256 6.22968 18.7065C6.12645 18.4875 5.98033 18.2915 5.79997 18.13C4.90025 17.3205 4.18404 16.3279 3.69939 15.2189C3.21474 14.1099 2.97286 12.9101 2.98997 11.7C2.98366 10.5302 3.21443 9.37122 3.66833 8.29306C4.12224 7.2149 4.78987 6.23988 5.63095 5.42684C6.47203 4.61379 7.46912 3.97958 8.56204 3.56247C9.65496 3.14537 10.8211 2.95401 11.99 2.99996C13.1573 2.96037 14.3206 3.15611 15.4107 3.57551C16.5008 3.9949 17.4954 4.62938 18.3351 5.44116C19.1749 6.25294 19.8427 7.22541 20.2988 8.30067C20.7549 9.37592 20.99 10.532 20.99 11.7C20.99 12.8679 20.7549 14.024 20.2988 15.0992C19.8427 16.1745 19.1749 17.147 18.3351 17.9587C17.4954 18.7705 16.5008 19.405 15.4107 19.8244C14.3206 20.2438 13.1573 20.4395 11.99 20.4H11.991ZM15.726 8.58496L13.413 11.34L10.066 9.28396C9.86173 9.15824 9.61906 9.11028 9.38235 9.14884C9.14565 9.1874 8.93074 9.30992 8.77697 9.49396L5.72597 13.13C5.63461 13.2294 5.56434 13.3464 5.5194 13.4737C5.47447 13.6011 5.4558 13.7362 5.46452 13.871C5.47324 14.0058 5.50917 14.1374 5.57015 14.2579C5.63112 14.3784 5.71588 14.4853 5.8193 14.5722C5.92272 14.659 6.04267 14.7241 6.1719 14.7633C6.30113 14.8025 6.43697 14.8152 6.57123 14.8005C6.70548 14.7858 6.83537 14.7441 6.95306 14.6778C7.07074 14.6115 7.17378 14.5221 7.25597 14.415L9.75497 11.44L13.102 13.496C13.3062 13.6217 13.5489 13.6696 13.7856 13.6311C14.0223 13.5925 14.2372 13.47 14.391 13.286L17.257 9.87096C17.3451 9.77093 17.4124 9.6543 17.4548 9.52791C17.4972 9.40152 17.5139 9.26792 17.5039 9.13498C17.4939 9.00204 17.4575 8.87244 17.3967 8.75379C17.3359 8.63515 17.252 8.52985 17.1499 8.44411C17.0478 8.35836 16.9296 8.2939 16.8022 8.25449C16.6749 8.21509 16.5409 8.20156 16.4083 8.21468C16.2756 8.2278 16.1469 8.26732 16.0297 8.33091C15.9125 8.3945 15.8093 8.48087 15.726 8.58496Z" fill="black"/>
</svg>
